<svg xmlns="http://www.w3.org/2000/svg" width="28" height="28">
    <g fill="none" fill-rule="evenodd">
        <rect fill="#EB8831" width="28" height="28" rx="14" />
        <path
            d="M21.804 6.186a.339.339 0 00-.092.02L18.1 7.407a.353.353 0 00-.142.092l-7.397 8.109 1.13.793c.092.065.176.15.244.244l.783 1.12 8.109-7.397a.353.353 0 00.092-.143l1.2-3.612a.325.325 0 00-.071-.335.325.325 0 00-.244-.092zm-13.522 8.71a.33.33 0 00-.204.08l-.58.54a.336.336 0 00-.111.234.328.328 0 00.101.234l4.854 4.853a.317.317 0 00.223.102h.01a.315.315 0 00.224-.102l.55-.57a.332.332 0 00.03-.417l-1.984-2.828a.353.353 0 00-.081-.082l-2.829-1.984a.308.308 0 00-.203-.06zm.244 3.052l-1.272 1.607c.786.11 1.406.73 1.516 1.516l1.608-1.272-1.852-1.851zM7 20.186a1.14 1.14 0 100 2.279 1.14 1.14 0 000-2.279z"
            fill="#FFF"
            fill-rule="nonzero"
        />
    </g>
</svg>