<svg xmlns="http://www.w3.org/2000/svg" width="11" height="18">
    <g fill="none">
        <path
            d="M10.271 14.743l.143-.036c-.107.327-.315.399-.315.399l.083.047c-.202.44-.672.69-.672.69l.149.042c-.072.226-.411.238-.411.238l.113.113c-.119.15-.53.19-.53.19l.125.06c-.196.208-.547.173-.547.173l.119.119c-.173.125-.524.083-.524.083l.036.155c-.178.041-.428-.03-.428-.03l-.006.137c-1.012.19-1.482-.095-1.577-.16l-.024-.019c.452-.178.434-1.487.434-1.487l.102.035c0-.464.148-.809.148-.809l.096.113c.023-.589.267-.815.267-.815 0 .066.131.137.131.137.101-.31.399-.607.399-.607-.018.06.077.208.077.208.173-.333.435-.511.435-.511 0 .095.077.172.077.172.149-.238.375-.41.375-.41-.012.089.172.1.172.1.137-.184.334-.273.334-.273l.071.125c.238-.173.393-.208.393-.208l.03.107s.148-.173.327-.167c.178 0 .636-.178.636-.178 0 .006.006.017.006.023.102.322-.053.738-.053.738l.13-.071c-.011.333-.184.625-.184.625l.209-.084c-.036.387-.173.56-.209.595l.155-.06c-.119.453-.292.5-.292.5zm-4.462.547s-.006.006-.024.018c-.12.083-.708.44-1.982.208l-.006-.172s-.315.089-.541.03l.042-.19s-.44.053-.655-.102l.149-.155s-.44.048-.69-.214l.16-.077s-.517-.054-.66-.238l.143-.143s-.429-.012-.524-.304l.184-.047s-.583-.316-.845-.863l.113-.06s-.267-.089-.398-.505l.166.041C.4 12.5.215 12.392.084 11.892l.203.084s-.215-.197-.268-.756l.256.101s-.209-.363-.226-.78l.166.084s-.196-.518-.071-.922c.006-.012.006-.024.012-.03 0 0 .577.22.797.22.226 0 .41.208.41.208l.042-.13s.19.047.494.261l.09-.154s.243.107.416.345c0 0 .22-.012.22-.12 0 0 .28.209.47.507 0 0 .095-.102.095-.215 0 0 .328.22.548.643 0 0 .113-.19.09-.262 0 0 .38.37.505.762 0 0 .167-.101.167-.185 0 0 .303.292.333 1.036l.119-.143s.184.428.184 1.017l.137-.041s-.03 1.642.536 1.868z"
            fill="#91CF3E"
        />
        <path fill="#B38058" d="M5.469 9.671h1v8.302h-1z" />
        <path
            d="M10.491 6.936c-.994 2.732-2.964 4.328-4.57 4.118H5.91c-1.606.21-3.576-1.386-4.57-4.118C.322 4.116.774 1.366 2.357.79c1.113-.405 2.487.38 3.558 1.862C6.986 1.17 8.361.385 9.474.79c1.582.577 2.04 3.326 1.017 6.146z"
            fill="#F37D79"
        />
        <ellipse
            fill="#FAA9A6"
            cx="5.916"
            cy="5.556"
            rx="3.12"
            ry="5.556"
        />
    </g>
</svg>